<?xml version="1.0" standalone="no"?>
<svg viewBox="0 0 200 200" xmlns="http://www.w3.org/2000/svg">
  <path fill="#FFFFFF" d="M30.2,-50.2C41.5,-39.7,54.7,-35.4,64.9,-25.9C75.1,-16.4,82.2,-1.8,78.4,9.9C74.6,21.5,59.7,30.2,46.5,33.8C33.3,37.4,21.7,35.8,12.4,35.4C3.1,35,-3.8,35.8,-10.6,34.5C-17.4,33.3,-24.1,29.9,-37.8,26.1C-51.6,22.2,-72.4,17.8,-79,8C-85.6,-1.7,-77.9,-16.9,-70.1,-31.3C-62.4,-45.6,-54.6,-59.2,-42.9,-69.6C-31.2,-80,-15.6,-87.2,-3.1,-82.4C9.4,-77.6,18.8,-60.8,30.2,-50.2Z" transform="translate(100 100)" />
</svg>
